<?xml version="1.0" encoding="UTF-8"?>
<!DOCTYPE svg PUBLIC "-//W3C//DTD SVG 1.1//EN" "http://www.w3.org/Graphics/SVG/1.1/DTD/svg11.dtd">
<!-- Creator: CorelDRAW 2019 (64-Bit) -->
<svg xmlns="http://www.w3.org/2000/svg" xml:space="preserve" width="100mm" height="100mm" version="1.1" style="shape-rendering:geometricPrecision; text-rendering:geometricPrecision; image-rendering:optimizeQuality; fill-rule:evenodd; clip-rule:evenodd"
viewBox="0 0 10000 10000"
 xmlns:xlink="http://www.w3.org/1999/xlink"
 xmlns:xodm="http://www.corel.com/coreldraw/odm/2003">
 <defs>
  <style type="text/css">
   <![CDATA[
    .str0 {stroke:black;stroke-width:20;stroke-miterlimit:22.9256}
    .fil1 {fill:black}
    .fil0 {fill:#DB9501}
   ]]>
  </style>
 </defs>
 <g id="Слой_x0020_1">
  <metadata id="CorelCorpID_0Corel-Layer"/>
  <g id="_2379784691888">
   <ellipse class="fil0 str0" cx="4988" cy="5012.27" rx="4575.29" ry="4669.91"/>
   <path class="fil1" d="M272 4947.67l-0.55 0 0 -8.87c0,-207.97 15.86,-418.19 45.28,-627.12 30.46,-216.46 75.74,-430.68 133.16,-638.78 2,-7.27 3.89,-15.57 5.69,-23.47 3.31,-14.6 6.48,-28.56 8.56,-35.79l0.14 0.04 1.52 -5.01 108.64 -332.39c37.47,-109.58 81.11,-215.45 128.02,-318.79 44.65,-98.35 93.3,-196.32 142.67,-293.57l3.57 -7.59 10.15 -18.99 3.88 -7.72c7.61,-14.02 6.74,-11.16 10.7,-19.09 21.82,-43.67 44.89,-85.02 68.5,-125.09 29.64,-50.31 50.34,-83.66 70.84,-116.67 60.05,-96.72 122.54,-192.9 188.83,-286.63 67.85,-95.92 138.74,-188.21 213.68,-274.3 2.69,-3.09 4.07,-5.05 5.41,-6.96 7.19,-10.23 14.29,-20.33 28.5,-35.77l13.96 -14.48c4.54,-4.67 8.75,-8.98 10.37,-11.17l4.58 -6.19c12.89,-17.46 18.75,-25.38 36.19,-44.03l174.67 -187.9 3.86 -3.86c11.33,-11.28 19.53,-17.95 27.56,-24.47 2.07,-1.68 4.11,-3.35 6.33,-5.71l74.41 -73.8 0.09 0.1c88.11,-94.22 287.97,-251.46 403.28,-342.2l33.61 -26.47 0.27 0.34c93.07,-73.5 189.3,-140.13 286.95,-201.56 98.95,-62.25 198.67,-119.13 297.75,-172.38 34.72,-18.66 70.49,-36.3 106.68,-54.14 21.77,-10.72 43.9,-21.64 80.94,-40.92 125.18,-65.12 293.67,-133.57 467.13,-193.69 178.58,-61.88 361.9,-114.43 506.98,-144.64l8.14 -1.78 349.03 -65.57 0.04 0.19 4.37 -0.75c70.46,-10.97 145.22,-19.92 222.63,-26.87 75.45,-6.77 152.29,-11.59 229.13,-14.48 5.51,-0.65 11.11,-1 16.8,-1l336.08 0 0 0.49 4.41 0.06c67.18,2.35 128.02,5.57 181.63,9.6 59.37,4.46 116.54,9.99 170.72,16.54 127.59,15.42 258.57,36.13 392.28,63.24 132.08,26.77 261.87,59.08 387.59,97.84 137.68,42.45 208.52,68.63 300.39,102.56l122.66 45.23c44.76,16.07 88.47,33.75 130.37,52.48 43.66,19.53 87.25,41 129.7,63.69 26.38,14.11 62.63,32.02 98.68,49.83 63.71,31.48 127.25,62.86 188.81,101.33l-0.15 0.25 81.94 47.2c56.87,31.01 111.19,65.13 163.91,100.6 50.2,33.76 101,70.24 151.26,106.35 72.06,51.78 140.92,104.31 207.18,157.38 63.75,51.06 127.36,104.39 190.82,159.34 2.74,2.06 5.43,4.23 8.06,6.52 6.72,5.84 16.2,14.93 26.27,24.59l12.61 11.67 -0.09 0.1 215.91 208.19c2.94,2.67 5.81,5.48 8.57,8.45 43.48,46.75 87.36,94.13 139.41,152.78 46.62,52.53 92.25,106.25 136.21,162.45l-0.13 0.11 60.54 75.63c2.46,2.79 4.83,5.69 7.1,8.72 156.46,207.77 217.19,305.06 341.13,503.62l13.09 20.97c5.02,8.04 9.76,15.96 15.47,25.8 8.07,13.86 11,19.04 14.23,24.81 119.28,212.9 227.46,438.54 318.81,673.37 85.5,219.79 155.43,445.51 204.93,673.84 22.95,105.88 43.47,210.92 61.54,319.26 17.61,105.51 32.43,212.8 44.35,325.55 14.89,140.86 21.53,289.18 22.62,438.62 1.07,148.72 -3.33,294.91 -10.51,434.12 -3.69,71.44 -10.03,141.19 -17.96,208.9 -7.27,62.04 -17.36,131.9 -28.58,204.13 -17.08,109.95 -36.78,202.76 -56.73,296.81l-14.48 68.17c-0.51,3.18 -1.13,6.36 -1.87,9.54l-28.69 122.22 -0.12 -0.03c-13.34,57.45 -29.8,110.25 -45.96,162.17l-22.96 74.35 -71.64 213.94 -2.23 7.2c-30.67,89.69 -66.21,179.72 -104.94,268.83 -38.25,88 -79,173.52 -120.8,255.8l-10.96 21.59c-46.62,91.89 -93.61,184.51 -148.09,271.9 -14,22.44 -19.32,31.52 -24.8,40.86 -11.91,20.3 -24.05,40.98 -28.74,48.53 -86.22,138.86 -177.29,264.61 -269.92,392.53l-29.43 40.66c-6.27,8.67 -12.25,16.18 -18.41,23.92 -3.41,4.28 -6.94,8.73 -12.47,16.36l-0.36 -0.26c-3.1,4.26 -6.47,8.41 -10.11,12.39l-443.24 484.71c-19.87,21.7 -37.87,37.02 -56.15,52.59 -6.16,5.24 -12.44,10.6 -23.83,21.5 -83.56,80.08 -177.95,160.9 -276.31,237.77 -97.62,76.3 -199.38,148.64 -298.36,212.32l-7.43 5.12 -44.83 28.86c-44.02,28.71 -87.18,56.87 -135.6,83.75l-80.63 47.17 -2.73 1.83c-115.61,75.69 -264.09,141.28 -397.6,200.27 -35.01,15.47 -69.21,30.58 -94.91,42.27 -116.78,53.1 -235.8,96.12 -356.08,134.05 -118.6,37.39 -236.14,69.19 -353.88,100.86 -14.08,3.78 -33.59,7.35 -51.48,10.61l-8.84 1.69 -7.57 1.64 -349.03 65.57 -0.04 -0.19 -4.37 0.75c-70.46,10.97 -145.22,19.92 -222.63,26.87 -75.45,6.77 -152.29,11.59 -229.13,14.48 -5.51,0.65 -11.11,1 -16.8,1l-336.08 0 0 -0.49 -4.41 -0.06c-67.18,-2.35 -128.02,-5.57 -181.63,-9.6 -59.37,-4.46 -116.54,-9.99 -170.72,-16.54 -162.61,-19.66 -331.24,-47.4 -500.68,-85.33 -153.86,-34.44 -303.79,-76.21 -444.57,-126.54l-27.71 -9.89c-128.68,-45.92 -259.79,-92.7 -390.16,-155.62 -7.5,-3.62 -20.96,-9.73 -34.25,-15.75 -19.72,-8.93 -39.02,-17.7 -65.62,-31.91 -11.43,-6.11 -28.28,-14.76 -49.42,-25.2 -14.51,-7.17 -28.02,-13.61 -38.2,-18.04 -50.23,-21.87 -109.71,-53.19 -169.46,-87.2 -72.07,-41.01 -146.17,-86.88 -204.13,-124.21 -3.46,-1.93 -6.87,-4.01 -10.21,-6.27l-209.72 -141.88 0.21 -0.31 -3.52 -2.45c-106.01,-76.17 -209.41,-154.87 -307.03,-236.42 -99.83,-83.39 -196.94,-172.24 -289.34,-267.88 -1,-1.03 -3.21,-2.82 -5.39,-4.58 -7.73,-6.24 -15.49,-12.5 -26.15,-23.07 -2.91,-2.7 -5.74,-5.54 -8.46,-8.53l-239.18 -263.28 0.25 -0.23 -0.8 -0.87c-12.65,-14.11 -19.31,-23.65 -25.9,-33.09 -1.78,-2.55 -3.59,-5.13 -4.69,-6.35 -11.4,-12.58 -17.68,-20.26 -23.61,-27.97 -2.14,-2.47 -4.22,-5.01 -6.22,-7.66 -7.54,-10 0.13,-0.59 -8.43,-11.54 -3.45,-4.41 -6.3,-7.6 -9.08,-10.7 -9.55,-10.66 -18.83,-21.03 -29.14,-35.21 -4.45,-6.13 -9.28,-12.24 -14.21,-18.5l0.34 -0.27c-10.07,-12.74 -11.18,-13.6 -15.42,-19.23l-28 -37.07c-61.79,-81.7 -124,-163.96 -183.05,-257.97 -2.45,-3.3 -4.79,-6.73 -6.98,-10.3l-163.13 -265.45 0.12 -0.07 -2.88 -4.89c-68.28,-121.88 -133.25,-249.13 -193.47,-379.92 -57.88,-125.7 -111.35,-255.03 -159.09,-386.36 -35.44,-97.49 -68.67,-197.27 -98.24,-297.74 -28.11,-95.53 -52.84,-190.46 -72.94,-283.19l0.42 -0.09 -89.14 -492.63c-1.18,-4.72 -2.13,-9.55 -2.83,-14.47 -3.93,-27.36 -7,-61.04 -10.04,-94.39 -0.83,-9.25 -1.71,-18.79 -4.3,-43.23 -9.77,-92.41 -15.63,-187.71 -19.05,-284.34 -3.29,-92.7 -4.23,-188.37 -4.28,-284.41zm1398.78 -2868.55c13.67,22 23.31,37.56 33.52,73.62 19.22,68.53 -15.76,139.46 -79.23,167.1 -32.46,17.68 -72.57,49.6 -112.21,85.86 -56.19,51.39 -108.29,109.16 -138.37,149.83 -152.11,205.61 -237.23,449.08 -264.85,696.89 -28.33,254.14 3.73,511.57 85.95,737.06 80.26,220.13 207.75,408.29 372.38,530.08 103.67,76.69 222.92,127 354.99,141.72 126.13,14.06 198.08,-3.97 280.82,-34.72l-2.72 -7.17c-111.89,-300.97 -171.09,-641.02 -176.49,-980.59 -5.41,-339.32 42.6,-679.2 145.07,-980.33 16.8,-49.4 35.45,-99.42 57.16,-150.83 21.96,-52.03 45.13,-100.74 70.05,-145.2 22.71,-40.52 48.46,-85.64 79.3,-130.76 34.01,-49.78 72.58,-96.73 116.8,-132.89 53.17,-43.5 128.59,-41.7 179.48,0.71 13.28,9.9 26.71,21.79 38.67,33.68 19.7,19.58 40.7,44.05 50.31,58.96 35.85,55.86 27.26,127.49 -16.71,173.41 -10.15,12.14 -15.41,18.25 -20.43,24.07 -17.07,19.78 -33.89,39.28 -50.85,63.41 -165.85,235.91 -254.78,594.06 -275.73,966.15 -22.9,406.74 35.88,823.9 164.53,1114.91 8.55,19.36 16.59,35.52 24.5,51.46 14.01,28.23 27.8,56.01 40.23,88.24 19.1,49.41 8.4,103 -23.31,140.98l0.16 0.13c-20.28,24.25 -39.13,37.69 -57.14,47.63 -5.06,6.71 -11.21,13.85 -18.69,21.58l-0.55 0.56c-19.48,20.1 -29.47,24.81 -58.02,38.71l-2.19 1.07c-36.47,17.77 -74.57,34.17 -114.64,48.87 -40.5,14.86 -81.56,27.46 -123.24,37.38 -167.65,39.93 -346.48,33.3 -514.58,-13.14 -168.13,-46.45 -326.18,-133.35 -451.99,-253.82 -113.11,-108.32 -207.62,-223.8 -284.86,-353.67 -76.86,-129.22 -136.19,-272.51 -179.27,-437.02 -6.94,-26.51 -13.34,-53.39 -19.19,-80.55 -148.11,601.94 -175.48,1219.81 -90.96,1814.64 96.81,681.23 339.92,1332.05 716.01,1893.97 24.05,35.94 47.38,70.73 71.44,105.56 21.13,30.57 43.9,62.41 70.55,97.72 66.2,87.7 180.32,227.98 294.12,356.08 84.41,95.02 167.09,181.73 226.32,231.43 35.88,30.1 79.93,69.18 123.81,108.11 63.54,56.36 126.62,112.32 204.98,172.08 65.07,49.64 130.21,97.72 195.59,142.99 68.8,47.66 138.01,92.83 207.86,134.43 660.5,393.39 1384.37,599.93 2111.64,614.51 721.56,14.46 1447.34,-160.42 2118.59,-529.63 146.82,-80.76 283.58,-169.03 414.01,-263.18 76.74,-55.39 152.16,-113.43 226.8,-173.64 -24.53,-4.82 -48.59,-10.44 -72.19,-16.9 -81.85,-22.4 -157.42,-54.65 -226.81,-97.52 -65.95,-40.75 -124.19,-84.72 -175.37,-131.96 -52.38,-48.35 -98.39,-100.77 -138.65,-157.27 -43.31,-60.78 -79.18,-119.55 -111.13,-184.19 -31.72,-64.17 -59.1,-132.96 -85.6,-214.06 -8.55,-26.15 -15.83,-50.67 -22.05,-73.87 -9.76,12.41 -19.71,24.7 -29.81,36.86 -70.17,84.45 -146.93,161.47 -219.86,221.75 -96.3,79.6 -193.9,145.09 -297.56,201.8 -97.11,53.14 -197.74,97.33 -306.31,137.37 8.07,66.44 5.02,125.82 -33.69,222.24 -17.82,44.37 -41.52,85.79 -70.18,124.05 -99.05,132.21 -255.59,220.09 -429.27,256.46 -167.44,35.07 -353.63,22.75 -519.63,-43.92 -63.3,-25.42 -124.16,-59.04 -180.54,-101.28 -36.86,-27.61 -69.37,-58.43 -97.98,-94.05 -28.67,-35.68 -53.25,-75.53 -74.22,-121.06 -39.8,-86.44 -48.95,-145.89 -44.68,-210.97 -83.31,-25.68 -171.69,-61.69 -257.74,-103.09 -149.08,-71.71 -293.68,-160.45 -393.22,-239.51 -77.78,-61.78 -160.04,-140.96 -236.51,-229.89 -4.46,23.37 -9.77,47.9 -16.09,73.86 -63.58,261.3 -183.26,500.48 -367.69,671.75 -166.52,154.66 -382.78,252.83 -654.15,261.86 -77.62,2.43 -142.54,-58.53 -144.97,-136.15l-2.78 -84.23c-5.5,-75.61 50.12,-142.37 126.04,-150.14l11.52 -1.28c130.28,-13.84 204.47,-21.73 297.61,-78.89 45.63,-28 84.62,-57.08 119.21,-88.64 34.24,-31.23 63.99,-64.72 91.48,-101.86 136.22,-184.06 201.12,-416.22 194.47,-648.38 -6.61,-230.58 -83.86,-459.71 -231.94,-640.28 -26.27,-32.03 -57.93,-62.51 -95.2,-91.05 -37.86,-28.99 -80.29,-55.24 -127.4,-78.32 -20.07,-9.84 -42.37,-18.61 -66.88,-26.29 -23.49,-7.37 -46.8,-13.02 -69.92,-16.96l-4.36 -0.63c-33.54,-5.45 -65.86,-4.16 -97.67,-2.88 -34.08,1.36 -67.83,2.71 -103.91,-0.25l0.02 -0.26c-69.74,-5.39 -126.19,-62.02 -129.56,-133.69l-4.38 -89.86c-3.34,-77.62 56.88,-143.28 134.5,-146.62 148,-6.54 260.7,0.99 365.81,29.72 108.32,29.61 201.01,79 306.78,155.57 41.24,29.85 81.43,64.84 118.85,102.5l6.83 6.94c82.37,-406.08 318.76,-728.08 629.97,-957.72 348.24,-256.96 791.29,-396.8 1213.79,-407.12 379.17,-9.26 745.81,65.86 1063.6,224.59 305.7,152.69 566.56,382.13 751.07,687.66 69.55,115.17 115.66,226.46 145.92,341.76 45.6,-54.42 96.5,-104.14 156.55,-151.34 92.05,-72.36 193.65,-129.21 310.75,-164.91 114.63,-34.96 241.6,-48.41 385.8,-34.72 76.37,5.25 134.75,70.8 130.84,147.57l-4.45 86.33 -0.16 -0.01c-3.11,61.66 -46.88,116.13 -110.08,130.09 -32.67,7.3 -61.85,6.13 -99.01,4.66 -60.32,-2.4 -156.13,-6.22 -268.83,50.4 -46.77,23.5 -89.57,50.61 -127.24,80.03 -36.96,28.88 -68.2,59.35 -92.59,90.14 -62.41,78.79 -123.14,178.69 -166.59,297.17 -35.6,97.08 -59.15,205.67 -61.72,323.74 -2.81,129.41 15.2,252.65 47.86,363.58 34.66,117.72 85.89,220.61 145.98,301.15 64.68,86.69 134.75,150.17 213.39,192.82l6.92 3.4c80.53,42.28 173.24,65.45 281.28,71.85 51.41,-0.19 100.22,27.95 125.06,74.86l21.78 -21.19c43.16,-41.57 84.34,-84.5 125.2,-129.03 43.98,-47.95 82.81,-92.22 122.04,-137.37 38.09,-43.82 75.76,-91.01 113.28,-140.11 35.04,-45.86 73.12,-98.01 111.82,-151.35 327.44,-451.25 576.5,-989.79 720.82,-1569.18 138.7,-556.83 180.92,-1150.75 103.42,-1740.62 -13.27,-100.95 -30.1,-200.21 -49.96,-300.67 -5.31,-26.84 -10.75,-53.33 -16.33,-79.58 -12.32,45.96 -26.34,91.37 -42.07,135.99 -52.56,149.12 -124.62,289.93 -216.21,413.45 -168.52,227.27 -384.14,398.01 -628.59,476.94 -227.79,73.56 -477.52,67.16 -734.29,-46.99 -72.58,-32.26 -98.1,-55.22 -114.36,-76.45l-0.29 -0.18c-19.7,-10.72 -35.19,-19.6 -56.93,-40.47 -43.68,-42.02 -54.35,-105.45 -31.37,-157.91 12.87,-33.44 26.77,-61.92 40.42,-89.88l20.47 -41.82c27.9,-61.1 51.14,-127.53 71.05,-197.32 20.5,-71.88 36.56,-144.07 50.01,-216.02 52.48,-280.81 66.6,-625.3 20.31,-952.3 -38.15,-269.48 -117.01,-524.48 -248.9,-716.15 -6.91,-10.04 -16.57,-20.84 -26.02,-31.41 -26.18,-29.28 -51.67,-57.78 -71.65,-100.97 -23.43,-50.8 -14.04,-108.35 19.36,-148.77 7.6,-9.31 26.58,-29.58 44.59,-46.99 17.12,-16.54 35.64,-32.3 51.01,-41.27 50.93,-29.73 112.81,-23.93 156.91,9.83 32.8,23.91 66.22,61.95 96.98,103.89 40.69,55.46 79.82,120.65 101.31,158.9 25.43,45.25 48.36,93.63 70.12,145.19 21.79,51.62 39.89,100 57.03,148.64 76.35,216.75 120.34,456.58 136.89,699.27 17.73,259.93 3.86,524.84 -35.35,768.92 -14.28,88.91 -30.56,172.1 -50.49,250.18 -21.04,82.49 -46.54,163.09 -78.38,243.52 -1.55,3.92 -3.26,7.72 -5.11,11.41l-2.11 5.23c21.72,6.67 42.17,12.16 56.77,15.58 136.95,32.15 265.71,22.84 382.31,-18.78 148.82,-53.13 280.25,-158.54 386.12,-298.04 110.08,-145.04 192.76,-326.89 239.61,-526.47 66.58,-283.56 59.34,-599.85 -45.78,-894.29 -127.98,-358.5 -313.37,-494.94 -406.47,-563.45 -35.41,-26.07 -61.75,-45.44 -83.54,-72.33 -38.17,-46.95 -41.06,-111.09 -11.99,-160.32l-0.14 -0.08 17.72 -30.01 -20.18 -24.93c-64.39,-79.15 -131.64,-157.35 -155.29,-184.8 -46.27,-53.69 -106.29,-118.22 -167.46,-180.18 -57.07,-57.78 -114.38,-112.54 -161.31,-152.95l-182.23 -158.08c-92.36,-78.63 -185.88,-148.34 -282.07,-213.58 -94.79,-64.28 -198.29,-127.95 -308.55,-193.32 -288.61,-171.12 -619.74,-310.97 -975.57,-408.2 -342.36,-93.54 -707.78,-148.03 -1080.55,-153.46 -530.29,-7.73 -1044.25,87.98 -1521.17,268.34 -494.86,187.15 -949.85,465.91 -1341.83,815.23 -20.81,18.54 -7.01,5.88 -36.65,31.92 -44.36,38.96 -89.41,78.55 -128.9,122.35 -18.96,21.04 -38.65,39.57 -58.57,58.31 -11.54,10.86 -23.18,21.81 -32.15,30.94 -10.09,10.27 -19.84,21.62 -29.51,32.9 -17.23,20.08 -34.36,40.05 -59.19,63.34 -16.66,15.62 -84.03,94.39 -150.59,176.04zm3253.7 6330c21.02,37.41 59.32,68.05 107.25,91.02 64.01,30.67 142.37,46.6 222.33,47.19 108.72,0.79 216.38,-26.33 290.09,-82.84 21.06,-16.15 43.79,-38.85 59.23,-66.35 -27.35,5.61 -50.5,10.25 -62.61,11.98 -293.69,42.1 -484.02,19.64 -616.29,-1zm163.69 -2853.53c-198.8,12.53 -386.57,56.52 -555.5,122.42 -181.72,70.88 -340.91,166.66 -467.93,275.45 -117.69,100.81 -259.65,262 -345.33,468.88 -61.59,148.72 -94.01,321.97 -66.38,514.22 25.31,176.23 93.23,331.87 182.08,463.69 110.38,163.76 251.98,290.18 384.97,374.06 248.24,156.57 536.59,251.57 834.93,277.68 292.09,25.57 592.7,-15.02 873.56,-128.57 166.47,-67.31 322.68,-158.57 456.23,-275.87l-0.24 -0.27c120.27,-105.7 222.44,-232.85 297.35,-383.03 42.86,-85.93 77.97,-186.99 96.64,-295.09 16.28,-94.32 20.19,-193.74 5.95,-292.71 -49.74,-345.66 -256.55,-630.53 -547.88,-826.61 -314.63,-211.78 -726.32,-320.84 -1148.45,-294.25zm-877.26 1067.51c35.58,-259.65 127.7,-477.14 296.14,-534.14 141.5,-47.89 251.52,13.34 331.94,145.15 40.97,67.18 73.04,155.69 96.1,256.06 21.57,93.84 35.92,199.88 42.77,309.09 26.58,423.41 -72.46,909.81 -306.81,993.57l-0.06 -0.18 -0.49 0.18c-6.14,2.18 -11.58,4 -15.97,5.25l-0.1 -0.36c-117.1,33.72 -208.08,-12.77 -277.45,-93.08 -49.21,-56.99 -83.98,-130.54 -106.7,-194.12 -5.02,-14.04 -10.9,-32.99 -16.92,-53.73 -59.64,-205.35 -80.98,-552.6 -42.45,-833.69zm375.94 -15.57c-24.94,124.8 -34.54,266.32 -32.12,354.02 1.63,59.3 4.71,117.24 10.5,174.75 4.85,48.28 11.6,95.41 21.01,141.63l1.94 -10.45c20.26,-111.26 30.55,-232.49 29.33,-353.25 -1.05,-105.41 -10.94,-210.02 -30.66,-306.7zm937.76 -2.98c33.35,-256.14 121.76,-472.95 286.04,-537.76 7.59,-2.98 14.91,-5.55 21.87,-7.63 110.24,-33.05 197.9,6.31 266.6,78.83 48.49,51.19 83.79,119 108.33,181.21 10.86,27.52 19.62,53.7 26.41,76.35 60.17,200.77 81.39,544.66 44.28,826.34 -34.2,259.52 -123.88,479.64 -287.37,541.8 -5.51,2.09 -12.37,4.33 -20.65,6.72 -112.33,32.43 -201.38,-9.96 -270.22,-84.97 -48.85,-53.22 -84.43,-123.14 -108.02,-185.17 -7.56,-19.88 -14.76,-42.27 -21.12,-64.28 -59.23,-205.11 -82.77,-550.13 -46.15,-831.44zm376.97 -20.18c-24.61,130.02 -32.71,274.45 -31.52,342.11 1.02,58.35 4.01,117.51 9.86,176.68 5.08,51.29 12.23,101.3 22.08,149.03 40.25,-183.22 38.16,-405.89 12.84,-587.3 -3.94,-28.24 -8.39,-55.18 -13.26,-80.52zm-2248.05 -2113.56c46.6,-84.49 123.65,-146.79 203.99,-174.38l8.61 -2.99c9.19,-2.86 18.5,-5.27 27.81,-7.26 100.83,-21.56 190.69,9.39 261.09,66.5 61.29,49.72 106.88,121.38 128.88,192.41 3.59,11.63 6.5,22.49 8.6,32.36 21.08,98.61 1.95,191.03 -39.22,265.98 -47.87,87.12 -128.16,151.83 -211.74,176.5 -9.64,2.85 -17.32,4.88 -23.29,6.17 -102.66,22.15 -193.86,-8.21 -264.97,-64.83 -63.22,-50.35 -109.68,-123.44 -131.16,-196.22 -1.89,-6.39 -3.56,-12.55 -5,-18.43l-1.93 -7.83c-21.78,-100.94 -2.91,-193.2 38.33,-267.98zm2434.48 -119.4c49.79,-84.5 130.18,-145.31 214.93,-168.88 9.99,-2.77 17.78,-4.72 23.34,-5.81 101.8,-20 192.31,12.95 262.34,71.54 61.54,51.5 106.8,125.38 126.91,197.7 3.08,11.1 5.3,20.06 6.61,26.73 19.72,100.3 -1.37,193.67 -44.21,268.45 -50.44,88.06 -134.19,151.99 -219.78,173.29 -9.4,2.33 -16.68,3.96 -21.95,4.89 -102.52,18.16 -193.07,-14.7 -262.97,-73.87 -60.29,-51.05 -104.18,-123.4 -124.4,-197.43l-2.15 -7.66c-2.36,-9.42 -4.21,-18.01 -5.59,-25.77 -17.55,-99.12 3.76,-189.94 46.92,-263.18z"/>
  </g>
 </g>
</svg>
